<svg width="44" height="44" viewBox="0 0 44 44" fill="none" xmlns="http://www.w3.org/2000/svg">
<rect width="44" height="44" rx="22" fill="#EADDFF"/>
<path fill-rule="evenodd" clip-rule="evenodd" d="M28.6003 17.6C28.6003 21.2451 25.6453 24.2 22.0003 24.2C18.3552 24.2 15.4003 21.2451 15.4003 17.6C15.4003 13.9549 18.3552 11 22.0003 11C25.6453 11 28.6003 13.9549 28.6003 17.6ZM26.4003 17.6C26.4003 20.0301 24.4303 22 22.0003 22C19.5702 22 17.6003 20.0301 17.6003 17.6C17.6003 15.1699 19.5702 13.2 22.0003 13.2C24.4303 13.2 26.4003 15.1699 26.4003 17.6Z" fill="#4F378A"/>
<path d="M22.0003 27.5C14.8784 27.5 8.81047 31.7113 6.49902 37.6112C7.06211 38.1704 7.65528 38.6993 8.27588 39.1953C9.9971 33.7785 15.3967 29.7 22.0003 29.7C28.6039 29.7 34.0035 33.7785 35.7247 39.1953C36.3453 38.6993 36.9384 38.1704 37.5015 37.6113C35.1901 31.7113 29.1221 27.5 22.0003 27.5Z" fill="#4F378A"/>
</svg>
